<?xml version="1.0" encoding="UTF-8" standalone="no"?>
<!-- Created with Inkscape (http://www.inkscape.org/) -->

<svg
   width="128"
   height="128"
   viewBox="0 0 128 128"
   version="1.1"
   id="svg1"
   xml:space="preserve"
   inkscape:version="1.4 (86a8ad7, 2024-10-11)"
   sodipodi:docname="icon.svg"
   inkscape:export-batch-path="D:\Downloads"
   inkscape:export-batch-name="batch"
   inkscape:export-filename="icon_128.png"
   inkscape:export-xdpi="96"
   inkscape:export-ydpi="96"
   xmlns:inkscape="http://www.inkscape.org/namespaces/inkscape"
   xmlns:sodipodi="http://sodipodi.sourceforge.net/DTD/sodipodi-0.dtd"
   xmlns="http://www.w3.org/2000/svg"
   xmlns:svg="http://www.w3.org/2000/svg"><sodipodi:namedview
     id="namedview1"
     pagecolor="#282a36"
     bordercolor="#000000"
     borderopacity="0.25"
     inkscape:showpageshadow="2"
     inkscape:pageopacity="0.0"
     inkscape:pagecheckerboard="0"
     inkscape:deskcolor="#d1d1d1"
     inkscape:document-units="mm"
     inkscape:zoom="2"
     inkscape:cx="-64.5"
     inkscape:cy="126.25"
     inkscape:window-width="2560"
     inkscape:window-height="1369"
     inkscape:window-x="-8"
     inkscape:window-y="-8"
     inkscape:window-maximized="1"
     inkscape:current-layer="layer1"
     inkscape:export-bgcolor="#000000ff" /><defs
     id="defs1"><inkscape:path-effect
       effect="fillet_chamfer"
       id="path-effect1048619"
       is_visible="true"
       lpeversion="1"
       nodesatellites_param="F,0,0,1,0,0,0,1 @ F,0,0,1,0,0,0,1 @ F,0,0,1,0,0,0,1 @ F,0,0,1,0,0,0,1 @ F,0,0,1,0,0,0,1 @ F,0,0,1,0,0,0,1 @ F,0,0,1,0,0,0,1 @ F,0,0,1,0,0,0,1"
       radius="0"
       unit="px"
       method="auto"
       mode="F"
       chamfer_steps="1"
       flexible="false"
       use_knot_distance="true"
       apply_no_radius="true"
       apply_with_radius="true"
       only_selected="false"
       hide_knots="false" /><inkscape:path-effect
       effect="fillet_chamfer"
       id="path-effect1048617"
       is_visible="true"
       lpeversion="1"
       nodesatellites_param="F,0,0,1,0,0,0,1 @ F,0,0,1,0,0,0,1 @ F,0,0,1,0,0,0,1 @ F,0,0,1,0,0,0,1 @ F,0,0,1,0,0,0,1 @ F,0,0,1,0,0,0,1 @ F,0,0,1,0,0,0,1 @ F,0,0,1,0,0,0,1"
       radius="0"
       unit="px"
       method="auto"
       mode="F"
       chamfer_steps="1"
       flexible="false"
       use_knot_distance="true"
       apply_no_radius="true"
       apply_with_radius="true"
       only_selected="false"
       hide_knots="false" /><inkscape:path-effect
       effect="fillet_chamfer"
       id="path-effect1048616"
       is_visible="true"
       lpeversion="1"
       nodesatellites_param="F,0,0,1,0,7.9424806,0,1 @ F,0,0,1,0,7.6773156,0,1 @ F,0,0,1,0,8.030869,0,1 @ F,0,0,1,0,7.9424806,0,1"
       radius="9.3125"
       unit="px"
       method="auto"
       mode="F"
       chamfer_steps="1"
       flexible="false"
       use_knot_distance="true"
       apply_no_radius="true"
       apply_with_radius="true"
       only_selected="false"
       hide_knots="false" /><inkscape:path-effect
       effect="fillet_chamfer"
       id="path-effect1048615"
       is_visible="true"
       lpeversion="1"
       nodesatellites_param="F,0,0,1,0,4.495335,0,1 @ F,0,0,1,0,4.8267913,0,1 @ F,0,0,1,0,4.8930826,0,1 @ F,0,0,1,0,4.5395292,0,1"
       radius="9.3125"
       unit="px"
       method="auto"
       mode="F"
       chamfer_steps="1"
       flexible="false"
       use_knot_distance="true"
       apply_no_radius="true"
       apply_with_radius="true"
       only_selected="false"
       hide_knots="false" /><inkscape:path-effect
       effect="fillet_chamfer"
       id="path-effect1048614"
       is_visible="true"
       lpeversion="1"
       nodesatellites_param="F,0,0,1,0,0,0,1 @ F,0,0,1,0,0,0,1 @ F,0,0,1,0,0,0,1 @ F,0,0,1,0,0,0,1 @ F,0,0,1,0,0,0,1 @ F,0,0,1,0,0,0,1 @ F,0,0,1,0,0,0,1 @ F,0,0,1,0,0,0,1"
       radius="0"
       unit="px"
       method="auto"
       mode="F"
       chamfer_steps="1"
       flexible="false"
       use_knot_distance="true"
       apply_no_radius="true"
       apply_with_radius="true"
       only_selected="false"
       hide_knots="false" /><inkscape:path-effect
       effect="fillet_chamfer"
       id="path-effect1048613"
       is_visible="true"
       lpeversion="1"
       nodesatellites_param="F,0,0,1,0,0,0,1 @ F,0,0,1,0,0,0,1 @ F,0,0,1,0,0,0,1 @ F,0,0,1,0,0,0,1 @ F,0,0,1,0,0,0,1 @ F,0,0,1,0,0,0,1 @ F,0,0,1,0,0,0,1 @ F,0,0,1,0,0,0,1"
       radius="0"
       unit="px"
       method="auto"
       mode="F"
       chamfer_steps="1"
       flexible="false"
       use_knot_distance="true"
       apply_no_radius="true"
       apply_with_radius="true"
       only_selected="false"
       hide_knots="false" /><inkscape:path-effect
       effect="fillet_chamfer"
       id="path-effect1048612"
       is_visible="true"
       lpeversion="1"
       nodesatellites_param="F,0,0,1,0,5.6568542,0,1 @ F,0,0,1,0,5.6568542,0,1 @ F,0,0,1,0,5.6568542,0,1 @ F,0,0,1,0,5.6568542,0,1 @ F,0,0,1,0,5.6568542,0,1 @ F,0,0,1,0,5.6568542,0,1 @ F,0,0,1,0,5.6568542,0,1 @ F,0,0,1,0,5.6568542,0,1"
       radius="0"
       unit="px"
       method="auto"
       mode="F"
       chamfer_steps="1"
       flexible="false"
       use_knot_distance="true"
       apply_no_radius="true"
       apply_with_radius="true"
       only_selected="false"
       hide_knots="false" /><inkscape:path-effect
       effect="fillet_chamfer"
       id="path-effect1048611"
       is_visible="true"
       lpeversion="1"
       nodesatellites_param="F,0,0,1,0,0,0,1 @ F,0,0,1,0,0,0,1 @ F,0,0,1,0,0,0,1 @ F,0,0,1,0,0,0,1 @ F,0,0,1,0,0,0,1 @ F,0,0,1,0,0,0,1 @ F,0,0,1,0,0,0,1 @ F,0,0,1,0,0,0,1"
       radius="0"
       unit="px"
       method="auto"
       mode="F"
       chamfer_steps="1"
       flexible="false"
       use_knot_distance="true"
       apply_no_radius="true"
       apply_with_radius="true"
       only_selected="false"
       hide_knots="false" /></defs><g
     inkscape:label="Layer 1"
     inkscape:groupmode="layer"
     id="layer1"><path
       style="fill:#453975;fill-opacity:1;stroke:#8153df;stroke-width:10.8058;stroke-linecap:round;stroke-linejoin:round;stroke-dasharray:none;stroke-opacity:1"
       d="M 9.8330263,102.69993 H 74.364072"
       id="path1048609" /><path
       style="fill:#453975;fill-opacity:1;stroke:#463a74;stroke-width:10.8058;stroke-linecap:round;stroke-linejoin:round;stroke-dasharray:none;stroke-opacity:1"
       d="M 95.012301,102.69993 H 113.58481"
       id="path1048609-4" /><circle
       style="fill:#8053de;fill-opacity:1;stroke:none;stroke-width:10.8058;stroke-linecap:round;stroke-linejoin:round;stroke-dasharray:none;stroke-opacity:1"
       id="path1048610"
       cx="86.609055"
       cy="102.69993"
       r="12.847964" /><path
       d="m 123.83796,47.124475 -8.6862,33.420561 h -5.00523 L 103.12126,52.803052 96.253095,80.545036 H 91.360091 L 82.516773,47.124475 h 4.556329 l 7.025276,27.786874 6.913052,-27.786874 h 4.51144 l 6.98038,28.056213 6.98039,-28.056213 z"
       id="text1048611"
       style="font-size:45.9673px;fill:#8054de;stroke:#8153df;stroke-width:2.31792;stroke-linecap:round;stroke-linejoin:round"
       onfocusout=""
       transform="scale(1.0025592,0.99744733)"
       aria-label="W" /><path
       id="rect1048611"
       style="fill:#8054de;fill-opacity:1;stroke:none;stroke-width:2.54399;stroke-linecap:round;stroke-linejoin:round;stroke-dasharray:none;stroke-opacity:0.0260586"
       d="M 14.401192,27.863333 A 11.003206,11.003206 0 0 0 3.3994753,38.86505 V 75.950526 A 11.003206,11.003206 0 0 0 14.401192,86.954949 H 64.398669 A 11.125656,11.125656 0 0 0 75.524852,75.828766 V 38.499769 A 10.635857,10.635857 0 0 0 64.888416,27.863333 Z m 3.31188,8.285111 h 43.90405 a 6.6868503,6.6868503 0 0 1 6.685992,6.685992 v 17.392779 a 6.7786877,6.7786877 0 0 1 -6.777988,6.777989 H 17.775305 A 6.2888885,6.2888885 0 0 1 11.487064,60.716962 V 42.377159 a 6.2276636,6.2276636 0 0 1 6.226008,-6.228715 z m 5.130166,38.492482 a 2.0780421,2.0780421 0 0 1 2.078042,2.078042 2.0780421,2.0780421 0 0 1 -2.078042,2.078042 2.0780421,2.0780421 0 0 1 -2.078042,-2.078042 2.0780421,2.0780421 0 0 1 2.078042,-2.078042 z m 8.76674,0 a 2.0780421,2.0780421 0 0 1 2.078042,2.078042 2.0780421,2.0780421 0 0 1 -2.078042,2.078042 2.0780421,2.0780421 0 0 1 -2.078042,-2.078042 2.0780421,2.0780421 0 0 1 2.078042,-2.078042 z m 8.658509,0 a 2.0780421,2.0780421 0 0 1 2.078042,2.078042 2.0780421,2.0780421 0 0 1 -2.078042,2.078042 2.0780421,2.0780421 0 0 1 -2.078042,-2.078042 2.0780421,2.0780421 0 0 1 2.078042,-2.078042 z m 7.706073,0 a 2.0780421,2.0780421 0 0 1 2.078042,2.078042 2.0780421,2.0780421 0 0 1 -2.078042,2.078042 2.0780421,2.0780421 0 0 1 -2.078042,-2.078042 2.0780421,2.0780421 0 0 1 2.078042,-2.078042 z m 8.658508,0 a 2.0780421,2.0780421 0 0 1 2.078042,2.078042 2.0780421,2.0780421 0 0 1 -2.078042,2.078042 2.0780421,2.0780421 0 0 1 -2.078042,-2.078042 2.0780421,2.0780421 0 0 1 2.078042,-2.078042 z" /><path
       style="fill:#8053de;fill-opacity:1;stroke:none;stroke-width:1.46245;stroke-linecap:round;stroke-linejoin:round;stroke-dasharray:none;stroke-opacity:0.0260586"
       id="rect1048616"
       width="8.1759224"
       height="8.7007523"
       x="36.902134"
       y="48.276825"
       inkscape:path-effect="#path-effect1048617"
       sodipodi:type="rect"
       d="m 38.802483,48.276825 h 4.375224 c 1.052793,0 1.900349,0.847556 1.900349,1.900349 v 4.900054 c 0,1.052793 -0.847556,1.900349 -1.900349,1.900349 h -4.375224 c -1.052793,0 -1.900349,-0.847556 -1.900349,-1.900349 v -4.900054 c 0,-1.052793 0.847556,-1.900349 1.900349,-1.900349 z"
       ry="1.9003495"
       transform="matrix(1.3853614,0,0,1.3853614,-30.146835,-21.035595)" /><path
       style="fill:#8053de;fill-opacity:1;stroke:none;stroke-width:1.46245;stroke-linecap:round;stroke-linejoin:round;stroke-dasharray:none;stroke-opacity:0.0260586"
       id="path1048617"
       width="8.1759224"
       height="8.7007523"
       x="36.902134"
       y="48.276825"
       inkscape:path-effect="#path-effect1048619"
       sodipodi:type="rect"
       d="m 38.802483,48.276825 h 4.375224 c 1.052793,0 1.900349,0.847556 1.900349,1.900349 v 4.900054 c 0,1.052793 -0.847556,1.900349 -1.900349,1.900349 h -4.375224 c -1.052793,0 -1.900349,-0.847556 -1.900349,-1.900349 v -4.900054 c 0,-1.052793 0.847556,-1.900349 1.900349,-1.900349 z"
       ry="1.9003495"
       transform="matrix(1.3853614,0,0,1.3853614,-3.1466527,-21.035595)" /><path
       style="fill:#de54a0;fill-opacity:1;stroke:#8153de;stroke-width:5.1674;stroke-linecap:round;stroke-linejoin:round;stroke-dasharray:none;stroke-opacity:1"
       d="M 14.401192,27.863333 14.179994,19.61774"
       id="path1048619" /><circle
       style="fill:#8054de;fill-opacity:1;stroke:none;stroke-width:8.11534;stroke-linecap:round;stroke-linejoin:round;stroke-dasharray:none;stroke-opacity:1"
       id="path1048620"
       cx="13.433037"
       cy="15.809543"
       r="5.8653364" /><path
       style="fill:#de54a0;fill-opacity:1;stroke:#8153de;stroke-width:5.1674;stroke-linecap:round;stroke-linejoin:round;stroke-dasharray:none;stroke-opacity:1"
       d="M 64.666838,27.06741 64.44564,18.821816"
       id="path1048621" /><circle
       style="fill:#8054de;fill-opacity:1;stroke:none;stroke-width:8.11534;stroke-linecap:round;stroke-linejoin:round;stroke-dasharray:none;stroke-opacity:1"
       id="circle1048621"
       cx="65.596657"
       cy="15.687091"
       r="5.8653364" /></g></svg>
